Coordinates
version=1
nRows=30
nColumns=38
inDegrees=no

Units are S.I. units (second, meters, Newtons, ...)
If the header above contains a line with 'inDegrees', this indicates whether rotational values are in degrees (yes) or radians (no).

endheader
time	pelvis_tilt	pelvis_list	pelvis_rotation	pelvis_tx	pelvis_ty	pelvis_tz	hip_flexion_r	hip_adduction_r	hip_rotation_r	knee_angle_r	ankle_angle_r	subtalar_angle_r	mtp_angle_r	hip_flexion_l	hip_adduction_l	hip_rotation_l	knee_angle_l	ankle_angle_l	subtalar_angle_l	mtp_angle_l	lumbar_extension	lumbar_bending	lumbar_rotation	arm_flex_r	arm_add_r	arm_rot_r	elbow_flex_r	pro_sup_r	wrist_flex_r	wrist_dev_r	arm_flex_l	arm_add_l	arm_rot_l	elbow_flex_l	pro_sup_l	wrist_flex_l	wrist_dev_l
1.01	3.11064	1.45447	1.61699	0.726542	-0.151535	1.01463	0.747121	-0.0307674	0.0145206	0.944608	0.0968625	0	0	0.131235	-0.0905874	-0.270627	0.598639	0.242677	0	0	0.0871651	0.0347701	-0.13841	-0.116006	-0.3194	0.952901	0.378579	0.875086	0	0	-0.0101191	-0.404731	0.345993	0.599403	1.33206	0	0
1.02	3.1156	1.44511	1.61411	0.726704	-0.162221	1.01267	0.757592	-0.0319397	0.00978978	0.900683	0.111625	0	0	0.128792	-0.0909047	-0.269756	0.596921	0.246243	0	0	0.0985638	0.037951	-0.143916	-0.128899	-0.313927	0.949654	0.364161	0.879355	0	0	-0.00699724	-0.410814	0.342221	0.611591	1.33352	0	0
1.03	3.11818	1.436	1.61412	0.726868	-0.172991	1.01062	0.766683	-0.0333215	0.00450635	0.856071	0.124017	0	0	0.126397	-0.0910771	-0.268758	0.595635	0.24917	0	0	0.109738	0.0408069	-0.149373	-0.142199	-0.309398	0.944094	0.351783	0.884412	0	0	-0.00366327	-0.416475	0.339347	0.622815	1.33487	0	0
1.04	3.12082	1.42714	1.61474	0.72704	-0.183865	1.00854	0.773946	-0.0344495	7.88294e-05	0.810641	0.133892	0	0	0.124112	-0.0914575	-0.267727	0.595167	0.251767	0	0	0.120683	0.0436974	-0.155523	-0.155393	-0.305028	0.935263	0.340156	0.891781	0	0	-0.000373936	-0.421787	0.337906	0.632501	1.33577	0	0
1.05	3.12441	1.4193	1.61518	0.727242	-0.194864	1.00655	0.778907	-0.0356839	-0.00415449	0.765892	0.14121	0	0	0.120929	-0.0922477	-0.266878	0.595357	0.253608	0	0	0.130686	0.0467346	-0.162227	-0.168721	-0.300865	0.921831	0.329755	0.902004	0	0	0.00353065	-0.426697	0.338585	0.640156	1.33489	0	0
1.06	3.12977	1.41245	1.6146	0.727428	-0.206012	1.00468	0.781381	-0.0369509	-0.0070793	0.721988	0.144196	0	0	0.116802	-0.0936048	-0.266193	0.59597	0.25535	0	0	0.14009	0.0495578	-0.176913	-0.16532	-0.305421	1.01162	0.321151	0.815755	0	0	-0.00326045	-0.42695	0.309234	0.650271	1.35713	0	0
1.07	3.13654	1.40758	1.61335	0.727618	-0.217295	1.00296	0.780935	-0.0383341	-0.00890772	0.681452	0.147683	0	0	0.110776	-0.0956072	-0.265993	0.597049	0.256267	0	0	0.146613	0.0531414	-0.185877	-0.17662	-0.302181	1.00055	0.312148	0.824255	0	0	-0.00135402	-0.429681	0.304358	0.656298	1.35978	0	0
1.08	-3.13742	1.40428	1.61056	0.727842	-0.228691	1.00138	0.777896	-0.0394577	-0.0085596	0.644898	0.152003	0	0	0.10355	-0.0982391	-0.265202	0.598714	0.256505	0	0	0.151379	0.0571765	-0.195665	-0.187136	-0.299286	0.988003	0.303981	0.83448	0	0	0.000340958	-0.431788	0.299683	0.661403	1.36143	0	0
1.09	-3.12463	1.40261	1.60559	0.728125	-0.240162	0.999936	0.771907	-0.0406631	-0.00668276	0.611315	0.158457	0	0	0.0954255	-0.101707	-0.26293	0.601361	0.255949	0	0	0.15433	0.0618116	-0.207051	-0.196371	-0.296395	0.973944	0.29575	0.845913	0	0	0.0021351	-0.433769	0.296513	0.665554	1.36251	0	0
1.1	-3.11641	1.40099	1.60514	0.728332	-0.25178	0.998435	0.769803	-0.0430656	-0.00752627	0.593245	0.164768	0	0	0.0875124	-0.104808	-0.261341	0.604574	0.254706	0	0	0.157554	0.0655698	-0.217129	-0.205649	-0.295141	0.964377	0.290885	0.852403	0	0	0.00434374	-0.435823	0.29655	0.668771	1.36204	0	0
1.11	-3.10588	1.40003	1.60208	0.728352	-0.263603	0.997112	0.76627	-0.0440076	-0.00713353	0.578881	0.174733	0	0	0.0788524	-0.108611	-0.258565	0.607611	0.251249	0	0	0.160318	0.0693157	-0.232291	-0.204393	-0.297827	1.01949	0.284959	0.803499	0	0	-0.00212887	-0.435027	0.276392	0.675061	1.37458	0	0
1.12	-3.09723	1.399	1.60009	0.72818	-0.275603	0.995792	0.765477	-0.0445557	-0.00820974	0.575947	0.181742	0	0	0.0703472	-0.112533	-0.255774	0.61111	0.247385	0	0	0.163356	0.073066	-0.241103	-0.212205	-0.295951	1.01231	0.279097	0.811349	0	0	-0.00227938	-0.435768	0.274307	0.677304	1.37418	0	0
1.13	-3.0881	1.39786	1.59726	0.727871	-0.287765	0.994526	0.765804	-0.0445217	-0.00980424	0.579972	0.185859	0	0	0.0625027	-0.11696	-0.252513	0.61546	0.242262	0	0	0.166701	0.0769903	-0.249185	-0.219553	-0.294198	1.00497	0.273551	0.820002	0	0	-0.00304781	-0.435988	0.273036	0.678576	1.37308	0	0
1.14	-3.07651	1.39725	1.59112	0.727346	-0.300123	0.993401	0.764542	-0.0426698	-0.00925947	0.585492	0.183411	0	0	0.0546896	-0.122274	-0.249447	0.620583	0.238541	0	0	0.170096	0.0816734	-0.255034	-0.226117	-0.294981	1.01224	0.271727	0.808748	0	0	-0.0024692	-0.43599	0.277372	0.677175	1.36895	0	0
1.15	-3.06763	1.3958	1.58788	0.726703	-0.31271	0.992187	0.766693	-0.0414525	-0.0118725	0.602887	0.184163	0	0	0.0486129	-0.127128	-0.244058	0.626689	0.230281	0	0	0.173874	0.0854867	-0.261942	-0.234002	-0.290607	0.986461	0.26365	0.839142	0	0	-0.00655036	-0.43484	0.272854	0.679129	1.36887	0	0
1.16	-3.05972	1.39307	1.58497	0.72586	-0.325581	0.990873	0.769915	-0.0390521	-0.0128437	0.624735	0.181439	0	0	0.044496	-0.131905	-0.237088	0.633919	0.220419	0	0	0.180184	0.0886603	-0.270565	-0.232966	-0.295219	1.05161	0.262973	0.777691	0	0	-0.0157655	-0.432401	0.26054	0.682425	1.37371	0	0
1.17	-3.05006	1.39066	1.57923	0.724833	-0.338719	0.989632	0.77065	-0.0344419	-0.0115798	0.645946	0.172079	0	0	0.0407613	-0.137237	-0.230434	0.64289	0.210348	0	0	0.185887	0.0927616	-0.274333	-0.240373	-0.293483	1.03926	0.259079	0.790035	0	0	-0.0214484	-0.430518	0.258811	0.68382	1.37301	0	0
1.18	-3.03696	1.3892	1.56892	0.723645	-0.352069	0.988568	0.769574	-0.0286821	-0.0112285	0.665287	0.158599	0	0	0.036419	-0.143154	-0.223415	0.65325	0.202102	0	0	0.190686	0.0978446	-0.275756	-0.247098	-0.292507	1.03197	0.256379	0.795696	0	0	-0.0263899	-0.427924	0.259604	0.683859	1.37099	0	0
1.19	-3.01724	1.3873	1.55005	0.722229	-0.365479	0.987763	0.769549	-0.0220462	-0.012504	0.680251	0.133593	0	0	0.0334557	-0.150251	-0.21611	0.665849	0.190568	0	0	0.195986	0.10486	-0.277048	-0.249731	-0.293432	1.04841	0.253593	0.780849	0	0	-0.0330308	-0.423284	0.256737	0.681854	1.37191	0	0
1.2	-2.98617	1.38716	1.51777	0.72065	-0.378871	0.98757	0.76834	-0.0139833	-0.0160155	0.691748	0.110128	0	0	0.0298435	-0.159426	-0.20913	0.681169	0.17586	0	0	0.198313	0.115371	-0.274554	-0.256576	-0.288272	0.999668	0.244904	0.830567	0	0	-0.0356262	-0.416987	0.259447	0.675002	1.37015	0	0
1.21	-2.94405	1.39049	1.47302	0.719052	-0.392186	0.988138	0.763338	-0.00413462	-0.0226051	0.702644	0.0899315	0	0	0.0247213	-0.170205	-0.203041	0.700749	0.156109	0	0	0.196343	0.128134	-0.272265	-0.251506	-0.292745	1.05867	0.243064	0.771833	0	0	-0.0380346	-0.408516	0.259504	0.66499	1.37026	0	0
1.22	-2.90075	1.39421	1.42513	0.717295	-0.405472	0.989037	0.758426	0.00722714	-0.0295315	0.717496	0.0718938	0	0	0.0209126	-0.18014	-0.196318	0.723668	0.136792	0	0	0.192133	0.141446	-0.267291	-0.25064	-0.29147	1.04803	0.236922	0.786033	0	0	-0.0399567	-0.400085	0.262277	0.654755	1.36818	0	0
1.23	-2.86447	1.39673	1.38233	0.715358	-0.418738	0.989967	0.755516	0.0186992	-0.0342151	0.73643	0.0604317	0	0	0.0205396	-0.187724	-0.188312	0.750019	0.121567	0	0	0.18859	0.153086	-0.262125	-0.246375	-0.292919	1.0578	0.234152	0.7814	0	0	-0.0462507	-0.39051	0.256207	0.64682	1.37265	0	0
1.24	-2.83653	1.39827	1.34689	0.713297	-0.43185	0.99087	0.753692	0.0297593	-0.035382	0.756185	0.0510439	0	0	0.0251634	-0.193398	-0.180288	0.780833	0.0973066	0	0	0.185929	0.162771	-0.25538	-0.240139	-0.294479	1.07935	0.231497	0.767949	0	0	-0.0531847	-0.38219	0.254373	0.639755	1.36916	0	0
1.25	-2.81687	1.39884	1.31942	0.711122	-0.444827	0.991738	0.751745	0.0401885	-0.0334381	0.773559	0.0428473	0	0	0.0347156	-0.196765	-0.16978	0.815222	0.0669018	0	0	0.183992	0.170769	-0.245876	-0.239894	-0.288241	1.02007	0.22258	0.837897	0	0	-0.0581889	-0.376209	0.263895	0.632474	1.35197	0	0
1.26	-2.80035	1.3995	1.29574	0.708893	-0.457696	0.992704	0.747037	0.049622	-0.0329259	0.786421	0.0359595	0	0	0.0472953	-0.198052	-0.154705	0.851906	0.0347402	0	0	0.182459	0.177054	-0.239142	-0.228534	-0.29262	1.08294	0.223964	0.785819	0	0	-0.0661223	-0.370996	0.272329	0.626705	1.33241	0	0
1.27	-2.78422	1.39966	1.27377	0.706701	-0.470325	0.993619	0.740733	0.0572516	-0.0384644	0.795942	0.0325674	0	0	0.0636869	-0.198841	-0.137452	0.892437	0.0101154	0	0	0.178963	0.183045	-0.233269	-0.220575	-0.291147	1.06758	0.221593	0.81178	0	0	-0.0771082	-0.361028	0.25812	0.623546	1.34069	0	0
1.28	-2.77129	1.39813	1.25594	0.704489	-0.48269	0.994344	0.734738	0.0636148	-0.0482377	0.802585	0.0326425	0	0	0.0854099	-0.199602	-0.120063	0.936982	-0.0164123	0	0	0.177937	0.187996	-0.22767	-0.209396	-0.292605	1.08926	0.222975	0.799359	0	0	-0.0864185	-0.354962	0.259662	0.620348	1.33314	0	0
1.29	-2.75868	1.39543	1.23939	0.702374	-0.494748	0.994915	0.728704	0.0695501	-0.0595576	0.807481	0.0363944	0	0	0.11146	-0.200164	-0.101329	0.985255	-0.0391306	0	0	0.177341	0.19263	-0.22215	-0.197376	-0.294562	1.10623	0.226753	0.785004	0	0	-0.0947837	-0.349665	0.264093	0.617484	1.32654	0	0
1.3	-2.74389	1.39262	1.22188	0.700434	-0.506382	0.995472	0.721544	0.0757667	-0.0688785	0.81151	0.0452622	0	0	0.140529	-0.200435	-0.0808509	1.03596	-0.0620484	0	0	0.175865	0.197472	-0.212638	-0.193817	-0.290186	1.02672	0.228469	0.856787	0	0	-0.0958627	-0.348076	0.290469	0.612238	1.30416	0	0
